<svg viewBox="0 0 20 20" fill="none" xmlns="http://www.w3.org/2000/svg">
  <circle cx="10" cy="10" r="10" fill="#E8EAED"/>
  <path d="M9.287 11.374c0-.467.088-.854.266-1.162.177-.308.494-.677.952-1.106.373-.336.639-.62.798-.854.168-.243.252-.532.252-.868 0-.448-.145-.807-.434-1.078-.29-.28-.691-.42-1.204-.42-.467 0-.84.135-1.12.406-.271.261-.476.588-.616.98L7.075 6.81a3.579 3.579 0 011.008-1.428c.466-.42 1.073-.63 1.82-.63.56 0 1.054.117 1.484.35.438.224.774.537 1.008.938.242.401.364.85.364 1.344 0 .513-.131.952-.392 1.316a6.789 6.789 0 01-.98 1.078c-.308.28-.532.546-.672.798s-.21.546-.21.882v.588H9.287v-.672zm.602 3.71a.885.885 0 01-.63-.252.902.902 0 01-.252-.644c0-.243.084-.448.252-.616a.861.861 0 01.63-.266c.252 0 .462.089.63.266a.816.816 0 01.266.616.877.877 0 01-.266.644.855.855 0 01-.63.252z" fill="#202124"/>
</svg>